<?xml version="1.0" encoding="iso-8859-1"?>
<!-- Generator: Adobe Illustrator 18.1.1, SVG Export Plug-In . SVG Version: 6.00 Build 0)  -->
<svg version="1.1" id="Capa_1" xmlns="http://www.w3.org/2000/svg" xmlns:xlink="http://www.w3.org/1999/xlink" x="0px" y="0px"
	 viewBox="0 0 19.935 19.935" style="enable-background:new 0 0 19.935 19.935;" xml:space="preserve">
<g>
	<path style="fill:#030104;" d="M19.935,18.33v-4.611h-4.022v-0.843h-1.879V12.35h-0.629v-1.98c0.132-0.037,0.229-0.155,0.229-0.3
		c0-0.171-0.141-0.31-0.311-0.31H12.91V8.5c0.069-0.048,0.115-0.127,0.115-0.219c0-0.146-0.117-0.264-0.265-0.264h-0.323
		c-0.033-0.352-0.143-1.081-0.48-1.569c-0.354-0.507-0.826-0.817-1.223-1.006c0.028-0.038,0.045-0.086,0.045-0.138
		c0-0.11-0.071-0.201-0.172-0.23V4.857h-0.174V3.8c0.052-0.026,0.09-0.082,0.09-0.146c0-0.09-0.075-0.164-0.164-0.164h-0.048
		c-0.049-0.084-0.14-0.146-0.245-0.17V1.604H9.868V3.32C9.762,3.344,9.674,3.406,9.623,3.489H9.575
		c-0.089,0-0.164,0.073-0.164,0.164c0,0.064,0.038,0.12,0.091,0.146v1.057H9.325v0.217C9.227,5.104,9.153,5.194,9.153,5.305
		c0,0.052,0.019,0.1,0.046,0.139c-0.398,0.188-0.868,0.498-1.22,1.005c-0.341,0.488-0.45,1.219-0.482,1.57H7.172
		c-0.146,0-0.262,0.118-0.262,0.265c0,0.091,0.044,0.169,0.113,0.218v1.259H6.61c-0.17,0-0.31,0.139-0.31,0.31
		c0,0.145,0.098,0.263,0.229,0.3v1.98H5.9v0.526H4.022v0.843H0v4.611h19.935V18.33z M18.182,14.482h0.698v0.986h-0.698V14.482z
		 M18.182,16.042h0.698v0.986h-0.698V16.042z M16.682,14.482h0.7v0.986h-0.7V14.482z M16.682,16.042h0.7v0.986h-0.7V16.042z
		 M14.546,13.999h0.661v2.374h-0.661V13.999z M11.421,16.373h-0.662v-2.374h0.662V16.373z M12.683,16.373h-0.661v-2.374h0.661
		V16.373z M13.284,13.999h0.659v2.374h-0.659V13.999z M12.595,10.653c0,0-0.016-0.235,0.202-0.235c0.219,0,0.219,0.235,0.219,0.235
		v1.682h-0.421C12.595,12.335,12.595,10.653,12.595,10.653z M12.118,8.538c0,0-0.013-0.17,0.166-0.17c0.178,0,0.178,0.17,0.178,0.17
		v1.218h-0.344C12.118,9.756,12.118,8.538,12.118,8.538z M11.852,10.417c0.218,0,0.218,0.235,0.218,0.235v1.682h-0.421v-1.681
		C11.648,10.653,11.633,10.417,11.852,10.417z M11.344,8.538c0,0-0.012-0.17,0.163-0.17c0.181,0,0.181,0.17,0.181,0.17v1.218h-0.344
		V8.538z M11.121,10.653v1.682h-0.417v-1.682c0,0-0.017-0.235,0.201-0.235C11.121,10.417,11.121,10.653,11.121,10.653z
		 M10.569,8.538c0,0-0.013-0.17,0.166-0.17c0.178,0,0.178,0.17,0.178,0.17v1.218h-0.344C10.569,9.756,10.569,8.538,10.569,8.538z
		 M9.795,8.538c0,0-0.013-0.17,0.166-0.17c0.178,0,0.178,0.17,0.178,0.17v1.218H9.795V8.538z M9.758,10.653
		c0,0-0.017-0.235,0.203-0.235c0.216,0,0.216,0.235,0.216,0.235v1.682H9.758V10.653z M9.615,15.121c0,0,0.075-0.243,0.354-0.243
		c0.278,0,0.35,0.243,0.35,0.243v1.251H9.615V15.121z M7.911,16.373H7.252v-2.374h0.659V16.373z M9.176,16.373H8.513v-2.374h0.662
		v2.374H9.176z M9.021,8.538c0,0-0.014-0.17,0.165-0.17c0.177,0,0.177,0.17,0.177,0.17v1.218H9.021V8.538z M8.812,10.653
		c0,0-0.016-0.235,0.201-0.235c0.218,0,0.218,0.235,0.218,0.235v1.682H8.812V10.653z M8.247,8.538c0,0-0.013-0.17,0.165-0.17
		c0.177,0,0.177,0.17,0.177,0.17v1.218H8.247V8.538z M7.865,10.653c0,0-0.015-0.235,0.203-0.235c0.216,0,0.216,0.235,0.216,0.235
		v1.682H7.865V10.653z M7.473,8.538c0,0-0.014-0.17,0.166-0.17c0.176,0,0.176,0.17,0.176,0.17v1.218H7.473V8.538z M6.919,10.653
		c0,0-0.015-0.235,0.203-0.235s0.218,0.235,0.218,0.235v1.682H6.919V10.653z M5.989,13.999H6.65v2.374H5.989V13.999z M4.728,13.999
		h0.661v2.374H4.728V13.999z M2.445,14.482h0.702v0.986H2.445V14.482z M2.445,16.042h0.702v0.986H2.445V16.042z M0.947,14.482h0.702
		v0.986H0.947V14.482z M0.947,16.042h0.702v0.986H0.947V16.042z"/>
</g>
<g>
</g>
<g>
</g>
<g>
</g>
<g>
</g>
<g>
</g>
<g>
</g>
<g>
</g>
<g>
</g>
<g>
</g>
<g>
</g>
<g>
</g>
<g>
</g>
<g>
</g>
<g>
</g>
<g>
</g>
</svg>
